<svg width="30" height="41" viewBox="0 0 30 41" fill="none" xmlns="http://www.w3.org/2000/svg">
<path d="M17.0282 40.617H4.68397C4.06961 40.6178 3.46113 40.4973 2.89338 40.2623C2.32564 40.0272 1.80978 39.6824 1.37536 39.2474C0.940947 38.8124 0.59651 38.2959 0.361784 37.7274C0.127059 37.159 0.00665617 36.5497 0.00747476 35.9346V22.4414C-0.00249159 22.411 -0.00249159 22.3783 0.00747476 22.348C0.0200543 22.1784 0.0963305 22.0199 0.220947 21.9043C0.345564 21.7888 0.509267 21.7248 0.679099 21.7253C0.811524 21.7266 0.940066 21.7703 1.046 21.8498C1.13237 21.9017 1.2083 21.9693 1.26988 22.0491C3.1355 24.0416 8.1105 25.9843 13.8628 25.9843C19.6152 25.9843 24.5591 24.0728 26.4558 22.0553C26.6007 21.9303 26.7869 21.8637 26.9782 21.8685C27.1451 21.8693 27.3076 21.9226 27.4427 22.0209C27.5777 22.1193 27.6785 22.2576 27.7306 22.4165L28.2717 24.0914C28.7765 25.6752 29.0263 27.3294 29.0117 28.9918C28.9868 35.4676 23.5268 40.617 17.0282 40.617Z" fill="#296CF0"/>
<path d="M17.0259 4.15013e-06H4.67945C4.06498 -0.00081522 3.45639 0.119701 2.88853 0.354649C2.32068 0.589596 1.80473 0.934358 1.37023 1.36918C0.935733 1.80401 0.591233 2.32036 0.356463 2.88864C0.121694 3.45692 0.00126915 4.06598 0.0020879 4.68092V18.1697C-0.000695967 18.1861 -0.000695967 18.203 0.0020879 18.2195C0.0020879 18.3978 0.0728612 18.5687 0.198839 18.6948C0.324816 18.8209 0.495678 18.8917 0.673837 18.8917C0.806287 18.8904 0.934852 18.8468 1.04081 18.7672C1.1272 18.7154 1.20314 18.6478 1.26473 18.568C3.1307 16.5762 8.10661 14.6341 13.86 14.6341C19.6134 14.6341 24.5582 16.545 26.4553 18.5618C26.6009 18.685 26.7872 18.7494 26.9778 18.7423C27.1442 18.7429 27.3066 18.6909 27.4418 18.5936C27.577 18.4964 27.678 18.3589 27.7304 18.2008L28.2715 16.5264C28.7764 14.9431 29.0263 13.2895 29.0117 11.6276C28.9868 5.14776 23.5257 4.15013e-06 17.0259 4.15013e-06Z" fill="#296CF0"/>
</svg>
